<?xml version="1.0" encoding="utf-8"?>
<!-- Generator: Adobe Illustrator 24.0.2, SVG Export Plug-In . SVG Version: 6.00 Build 0)  -->
<svg version="1.1" id="Layer_1" xmlns="http://www.w3.org/2000/svg" xmlns:xlink="http://www.w3.org/1999/xlink" x="0px" y="0px"
	 viewBox="0 0 71.68 59.95" style="enable-background:new 0 0 71.68 59.95;" xml:space="preserve">
<style type="text/css">
	.st0{fill:#6C6CCC;}
	.st1{fill-rule:evenodd;clip-rule:evenodd;fill:#FFFFFF;}
	.st2{fill:#FFFFFF;}
</style>
<g>
	<circle class="st0" cx="35.11" cy="30.02" r="17.59"/>
	<g>
		<path class="st1" d="M35.11,20.41c-5.44,0.01-9.85,4.42-9.84,9.86c0,4.24,2.72,8,6.74,9.34c0.49,0.09,0.67-0.22,0.67-0.47
			s0-1.01,0-1.83c-2.74,0.59-3.31-1.16-3.31-1.16c-0.45-1.14-1.09-1.44-1.09-1.44c-0.89-0.61,0.07-0.6,0.07-0.6
			c0.63,0.09,1.19,0.46,1.51,1.01c0.88,1.51,2.31,1.07,2.87,0.83c0.04-0.5,0.26-0.97,0.63-1.32c-2.19-0.25-4.49-1.1-4.49-4.87
			c-0.01-0.98,0.35-1.92,1.02-2.64c-0.3-0.85-0.27-1.78,0.1-2.61c0,0,0.83-0.26,2.71,1.01c1.62-0.44,3.32-0.44,4.93,0
			c1.88-1.27,2.71-1.01,2.71-1.01c0.36,0.82,0.4,1.76,0.1,2.61c0.67,0.72,1.03,1.66,1.01,2.64c0,3.79-2.3,4.62-4.5,4.86
			c0.47,0.48,0.72,1.15,0.67,1.83c0,1.32,0,2.38,0,2.7c0,0.26,0.18,0.57,0.68,0.47c5.16-1.72,7.95-7.3,6.23-12.46
			c-1.34-4.03-5.11-6.74-9.35-6.74L35.11,20.41z"/>
		<path class="st2" d="M28.99,34.55c0,0.05-0.1,0.06-0.17,0.03s-0.11-0.1-0.09-0.15c0.02-0.05,0.1-0.06,0.17-0.03
			C28.97,34.44,29.01,34.5,28.99,34.55z"/>
		<path class="st2" d="M29.39,35c-0.05,0.05-0.14,0.02-0.2-0.05c-0.06-0.05-0.07-0.14-0.03-0.2c0.05-0.05,0.14-0.02,0.2,0.05
			C29.43,34.86,29.44,34.95,29.39,35z"/>
		<path class="st2" d="M29.78,35.57c-0.06,0.04-0.16,0-0.22-0.09c-0.06-0.09-0.06-0.19,0-0.24c0.06-0.04,0.16,0,0.22,0.08
			S29.84,35.52,29.78,35.57z"/>
		<path class="st2" d="M30.31,36.11c-0.05,0.06-0.17,0.04-0.25-0.04C29.97,36,29.95,35.88,30,35.82c0.06-0.06,0.17-0.04,0.25,0.04
			C30.34,35.94,30.37,36.06,30.31,36.11z"/>
		<path class="st2" d="M31.05,36.43c-0.02,0.07-0.14,0.11-0.25,0.08c-0.11-0.03-0.18-0.12-0.16-0.2c0.02-0.08,0.14-0.11,0.25-0.08
			C31,36.26,31.07,36.35,31.05,36.43z"/>
		<path class="st2" d="M31.85,36.49c0,0.08-0.09,0.15-0.21,0.15s-0.22-0.06-0.22-0.14c0-0.08,0.09-0.15,0.21-0.15
			C31.76,36.34,31.85,36.41,31.85,36.49L31.85,36.49z"/>
		<path class="st2" d="M32.6,36.36c0,0.08-0.07,0.16-0.19,0.18c-0.12,0.02-0.22-0.02-0.23-0.1c-0.01-0.08,0.07-0.17,0.18-0.19
			C32.48,36.23,32.59,36.28,32.6,36.36z"/>
	</g>
</g>
</svg>
