<?xml version="1.0" encoding="utf-8"?>
<!-- Generator: Adobe Illustrator 24.0.2, SVG Export Plug-In . SVG Version: 6.00 Build 0)  -->
<svg version="1.1" id="Layer_1" xmlns="http://www.w3.org/2000/svg" xmlns:xlink="http://www.w3.org/1999/xlink" x="0px" y="0px"
	 viewBox="0 0 71.68 59.95" style="enable-background:new 0 0 71.68 59.95;" xml:space="preserve">
<style type="text/css">
	.st0{fill:#6C6CCC;}
	.st1{fill:#FFFFFF;}
	.st2{fill-rule:evenodd;clip-rule:evenodd;fill:#FFFFFF;}
</style>
<g>
	<circle class="st0" cx="35.75" cy="27.36" r="17.48"/>
	<g>
		<path class="st1" d="M26.21,24.01h4.06v13.06h-4.06V24.01z M28.24,17.52c1.3,0,2.35,1.05,2.35,2.35c0,1.3-1.05,2.35-2.35,2.35
			c-1.3,0-2.35-1.05-2.35-2.35C25.88,18.57,26.94,17.52,28.24,17.52L28.24,17.52"/>
		<path class="st1" d="M32.81,24.01h3.89v1.79h0.07c0.79-1.36,2.27-2.17,3.84-2.11c4.11,0,4.87,2.7,4.87,6.22v7.16h-4.06v-6.35
			c0-1.51-0.02-3.46-2.11-3.46c-2.08,0-2.44,1.65-2.44,3.35v6.46h-4.05L32.81,24.01z"/>
	</g>
</g>
<g>
	<circle class="st0" cx="100.11" cy="26.02" r="17.59"/>
	<g>
		<path class="st2" d="M100.11,16.42c-5.44,0.01-9.85,4.42-9.84,9.86c0,4.24,2.72,8,6.74,9.34c0.49,0.09,0.67-0.22,0.67-0.47
			c0-0.26,0-1.01,0-1.83c-2.74,0.59-3.31-1.16-3.31-1.16c-0.45-1.14-1.09-1.44-1.09-1.44c-0.89-0.61,0.07-0.6,0.07-0.6
			c0.63,0.09,1.19,0.46,1.51,1.01c0.88,1.51,2.31,1.07,2.87,0.83c0.04-0.5,0.26-0.97,0.63-1.32c-2.19-0.25-4.49-1.1-4.49-4.87
			c-0.01-0.98,0.35-1.92,1.02-2.64c-0.3-0.85-0.27-1.78,0.1-2.61c0,0,0.83-0.26,2.71,1.01c1.62-0.44,3.32-0.44,4.93,0
			c1.88-1.27,2.71-1.01,2.71-1.01c0.36,0.82,0.4,1.76,0.1,2.61c0.67,0.72,1.03,1.66,1.01,2.64c0,3.79-2.3,4.62-4.5,4.86
			c0.47,0.48,0.72,1.15,0.67,1.83c0,1.32,0,2.38,0,2.7c0,0.26,0.18,0.57,0.68,0.47c5.16-1.72,7.95-7.3,6.23-12.46
			c-1.34-4.03-5.11-6.74-9.35-6.74L100.11,16.42z"/>
		<path class="st1" d="M93.98,30.56c0,0.05-0.1,0.06-0.17,0.03c-0.07-0.03-0.11-0.1-0.09-0.15c0.02-0.05,0.1-0.06,0.17-0.03
			C93.97,30.45,94.01,30.51,93.98,30.56z"/>
		<path class="st1" d="M94.39,31c-0.05,0.05-0.14,0.02-0.2-0.05c-0.06-0.05-0.07-0.14-0.03-0.2c0.05-0.05,0.14-0.02,0.2,0.05
			S94.44,30.96,94.39,31z"/>
		<path class="st1" d="M94.78,31.58c-0.06,0.04-0.16,0-0.22-0.09s-0.06-0.19,0-0.24c0.06-0.04,0.16,0,0.22,0.08
			C94.84,31.42,94.84,31.53,94.78,31.58z"/>
		<path class="st1" d="M95.31,32.12c-0.05,0.06-0.17,0.04-0.25-0.04c-0.08-0.08-0.11-0.19-0.05-0.25c0.06-0.06,0.17-0.04,0.25,0.04
			S95.36,32.06,95.31,32.12z"/>
		<path class="st1" d="M96.04,32.44c-0.02,0.07-0.14,0.11-0.25,0.08c-0.11-0.03-0.18-0.12-0.16-0.2c0.02-0.08,0.14-0.11,0.25-0.08
			C95.99,32.27,96.06,32.36,96.04,32.44z"/>
		<path class="st1" d="M96.84,32.5c0,0.08-0.09,0.15-0.21,0.15s-0.22-0.06-0.22-0.14s0.09-0.15,0.21-0.15
			C96.75,32.35,96.84,32.42,96.84,32.5L96.84,32.5z"/>
		<path class="st1" d="M97.6,32.37c0,0.08-0.07,0.16-0.19,0.18c-0.12,0.02-0.22-0.02-0.23-0.1c-0.01-0.08,0.07-0.17,0.18-0.19
			S97.58,32.29,97.6,32.37z"/>
	</g>
</g>
</svg>
